<svg id="bio-sensor" xmlns="http://www.w3.org/2000/svg" width="32.272" height="32.272" viewBox="0 0 32.272 32.272">
  <path id="Path_1983" data-name="Path 1983" d="M27.545,4.726A16.136,16.136,0,0,0,4.726,27.545,16.136,16.136,0,0,0,27.545,4.726ZM25.1,19.312a.834.834,0,1,1-.834-.833A.834.834,0,0,1,25.1,19.312ZM7.174,12.959a.834.834,0,1,1,.834.833A.834.834,0,0,1,7.174,12.959ZM27.039,25.292v-1.92a.945.945,0,1,0-1.891,0v3.786q-.551.452-1.147.847V24.633a.945.945,0,0,0-1.891,0v4.433a14.141,14.141,0,0,1-2.015.755V13.454h2.438a2.725,2.725,0,1,0,.147-1.891H19.15a.945.945,0,0,0-.945.945V30.23A14.249,14.249,0,0,1,2.066,13.9H5.453a2.724,2.724,0,1,0,0-1.891H2.5A14.24,14.24,0,0,1,5.233,6.98V8.19a.945.945,0,0,0,1.891,0V5.113q.551-.451,1.147-.847V6.929a.945.945,0,1,0,1.891,0V3.206a14.147,14.147,0,0,1,1.8-.69V19.1H9.673a2.724,2.724,0,1,0,0,1.891H12.9a.945.945,0,0,0,.945-.945V2.076A14.249,14.249,0,0,1,30.206,18.367H26.819a2.724,2.724,0,1,0,0,1.891h2.953A14.238,14.238,0,0,1,27.039,25.292ZM25.153,11.873a.833.833,0,1,1-.833.833A.835.835,0,0,1,25.153,11.873ZM7.952,20.05a.834.834,0,1,1-.833-.833A.834.834,0,0,1,7.952,20.05Zm0,0" fill="#374eee"/>
  <path id="Path_1984" data-name="Path 1984" d="M158.7,52a2.723,2.723,0,0,0-2.567,3.636L153.1,58.168a.946.946,0,0,0-.339.726v12l-1.3.7a2.725,2.725,0,1,0,.9,1.663l1.792-.968a.945.945,0,0,0,.5-.832V59.336l2.688-2.245A2.724,2.724,0,1,0,158.7,52Zm-9.861,21.634a.833.833,0,1,1,.833.833A.834.834,0,0,1,148.836,73.638Zm9.027-18.91a.834.834,0,1,1,.834.833A.834.834,0,0,1,157.863,54.728Zm0,0" transform="translate(-137.683 -48.726)" fill="#374eee"/>
</svg>
